<?xml version="1.0" encoding="utf-8"?>
<!-- Generator: Adobe Illustrator 22.0.1, SVG Export Plug-In . SVG Version: 6.00 Build 0)  -->
<svg version="1.1" id="레이어_1" xmlns="http://www.w3.org/2000/svg" xmlns:xlink="http://www.w3.org/1999/xlink" x="0px"
	 y="0px" viewBox="0 0 348 348" style="enable-background:new 0 0 348 348;" xml:space="preserve">
<style type="text/css">
	.st0{fill:none;stroke:#000000;stroke-width:2;}
	.st1{fill:none;stroke:#000000;stroke-width:2;stroke-miterlimit:10;}
</style>
<path class="st0" d="M5.1,5.8H342v337.7H5.1L5.1,5.8z"/>
<path class="st0" d="M282.7,40.6c0-8.4,7-15.2,15.6-15.2c4.1,0,8.1,1.6,11,4.4c2.9,2.8,4.6,6.7,4.6,10.7c0,8.4-7,15.2-15.6,15.2
	C289.7,55.7,282.7,48.9,282.7,40.6L282.7,40.6z"/>
<rect x="30.2" y="93.8" width="287.3" height="100.8"/>
<rect x="54.1" y="212.2" class="st1" width="37.6" height="37.6"/>
<rect x="105.2" y="212.2" class="st1" width="37.6" height="37.6"/>
<rect x="155.8" y="212.2" class="st1" width="37.6" height="37.6"/>
<rect x="207" y="212.2" class="st1" width="37.6" height="37.6"/>
<rect x="257.6" y="212.2" class="st1" width="37.6" height="37.6"/>
<rect x="54.1" y="262.6" class="st1" width="37.6" height="37.6"/>
<rect x="105.2" y="262.6" class="st1" width="37.6" height="37.6"/>
<rect x="155.8" y="262.6" class="st1" width="37.6" height="37.6"/>
<rect x="207" y="262.6" class="st1" width="37.6" height="37.6"/>
<rect x="257.6" y="262.6" class="st1" width="37.6" height="37.6"/>
</svg>
